<svg fill="none" height="360" viewBox="0 0 640 360" width="640" xmlns="http://www.w3.org/2000/svg" xmlns:xlink="http://www.w3.org/1999/xlink"><clipPath id="a"><path d="m104 120h433.812v120h-433.812z"/></clipPath><g clip-path="url(#a)"><path d="m238.959 120-.096.207c0 .056-9.921 20.639-23.934 37.684-4.658 5.667-10.219 10.527-16.458 14.384-4.354 2.679-8.994 4.86-13.834 6.502-21.908 3.555-42.162 13.854-57.94 29.463-6.195 6.08-11.702 12.823-16.422 20.108-2.278 3.451-4.299 7.064-6.048 10.81l-.227.511h65.419l.112-.208c.02-.055 9.92-20.638 23.933-37.683 7.946-9.669 18.452-16.907 30.317-20.886 7.71-1.261 15.259-3.365 22.509-6.275 13.212-5.331 25.242-13.218 35.398-23.208 4.692-4.602 8.997-9.583 12.873-14.891 5.983-8.241 8.995-14.627 9.617-16.007l.228-.511zm55.015 16.103c-3.843 5.273-8.112 10.221-12.764 14.796-.623.626-1.285 1.248-1.967 1.87-9.674 9.051-20.943 16.229-33.236 21.17-6.314 2.537-12.86 4.454-19.546 5.724-.925.191-1.871.359-2.816.511-6.433 1.072-12.944 1.606-19.466 1.595-15.629 0-28.992 3.008-40.289 7.523-12.627 5.073-24.13 12.587-33.85 22.111-5.144 5.025-9.796 10.531-13.89 16.443-2.469 3.555-4.716 7.26-6.729 11.093h-4.304c1.689-3.521 3.615-6.923 5.764-10.184 4.689-7.241 10.164-13.94 16.327-19.977.303-.303.622-.606.945-.909.208-.208.399-.399.622-.602 14.776-14.032 33.278-23.514 53.297-27.313.945-.187 1.911-.359 2.872-.506 6.359-1.049 12.794-1.568 19.239-1.552 15.668 0 29.067-3.004 40.352-7.539 12.669-5.103 24.204-12.659 33.942-22.235 4.166-4.082 8.008-8.483 11.489-13.163 3.386-4.492 6.396-9.255 8.999-14.241h4.328c-2.631 5.402-5.75 10.552-9.319 15.385z" fill="#e53324"/><path d="m303.293 120.718c-2.631 5.402-5.75 10.552-9.319 15.385-3.843 5.273-8.112 10.221-12.764 14.795-.622.627-1.285 1.249-1.967 1.871-9.674 9.051-20.943 16.229-33.236 21.17-6.314 2.537-12.86 4.454-19.546 5.724-.925.191-1.871.359-2.816.51-6.433 1.073-12.944 1.606-19.466 1.596-15.629 0-28.992 3.008-40.289 7.523-12.627 5.073-24.13 12.587-33.85 22.111-5.144 5.025-9.796 10.531-13.89 16.442-2.469 3.556-4.716 7.261-6.729 11.094h-4.304c1.689-3.521 3.615-6.924 5.764-10.184 4.689-7.241 10.164-13.941 16.327-19.977.303-.303.622-.606.945-.909.208-.208.399-.399.622-.603 14.776-14.031 33.278-23.513 53.297-27.312.945-.188 1.911-.359 2.872-.507 6.359-1.048 12.794-1.567 19.239-1.551 15.669 0 29.067-3.004 40.352-7.54 12.669-5.102 24.204-12.659 33.942-22.234 4.167-4.082 8.008-8.483 11.489-13.164 3.386-4.491 6.396-9.254 8.999-14.24z" fill="#fff"/><g fill="#332e2c"><path d="m332.336 141.987c.03-.581-.071-1.161-.294-1.698-.224-.537-.565-1.017-.998-1.406-.862-.758-2.101-1.136-3.718-1.136h-7.264v8.44h7.296c1.564 0 2.792-.371 3.662-1.117.439-.38.786-.855 1.014-1.389.228-.535.332-1.114.302-1.694zm-16.123 19.522v-27.002h11.452c1.639-.06 3.269.269 4.755.962 1.153.532 2.125 1.391 2.796 2.47s1.011 2.331.978 3.601c.038 1.053-.191 2.099-.667 3.04-.42.786-1.025 1.458-1.763 1.958-.76.5-1.607.853-2.497 1.041v.272c1.027.129 2.017.462 2.912.981.843.503 1.528 1.231 1.979 2.102.497 1.052.735 2.208.694 3.371.011 1.295-.35 2.566-1.041 3.662-.72 1.14-1.757 2.045-2.984 2.604-1.486.671-3.105.996-4.735.95zm3.849-3.215h7.687c1.643 0 2.935-.381 3.873-1.141.942-.75 1.412-1.847 1.412-3.267s-.49-2.537-1.488-3.291c-.997-.754-2.297-1.137-3.917-1.137h-7.579zm22.159-16.076h3.666v19.295h-3.666zm1.847-3.39c-.321.009-.64-.049-.938-.169-.297-.121-.566-.303-.789-.534-.228-.217-.408-.48-.528-.771-.12-.292-.178-.605-.17-.92-.008-.326.05-.649.169-.952.12-.303.3-.579.529-.811.223-.231.492-.413.789-.535s.617-.182.938-.175c.321-.004.64.057.938.179.297.122.567.302.793.531.234.23.419.504.545.807.125.303.188.628.185.956.006.316-.054.63-.177.921-.122.291-.304.553-.533.77-.229.23-.502.411-.803.531-.302.121-.624.179-.948.172zm21.724 6.382-10.228 13.084h10.264v3.235h-14.815v-2.992l10.275-13.084h-10.239v-3.235h14.759zm4.627-2.976h3.315l.239 2.242c.619-.803 1.426-1.442 2.35-1.859.992-.453 2.072-.684 3.163-.678 1.354-.032 2.692.292 3.881.941 1.113.651 2.002 1.625 2.549 2.793.647 1.459.955 3.047.902 4.643v11.169h-3.622v-10.703c0-1.807-.399-3.191-1.137-4.112-.738-.922-1.859-1.4-3.303-1.4s-2.645.482-3.467 1.444c-.821.961-1.236 2.405-1.236 4.264v10.531h-3.63zm30.021 19.566c-1.728.031-3.431-.419-4.919-1.3-1.428-.855-2.59-2.09-3.358-3.567-.822-1.602-1.234-3.384-1.197-5.185-.032-1.749.38-3.476 1.197-5.022.768-1.461 1.926-2.681 3.344-3.526 1.419-.845 3.043-1.281 4.694-1.261 1.673-.029 3.323.384 4.786 1.197 1.366.766 2.488 1.902 3.235 3.279.799 1.486 1.185 3.16 1.117 4.846 0 .307 0 .622-.032.942-.032.319-.063.678-.119 1.061h-14.269c.056.962.356 1.894.874 2.708.473.767 1.135 1.401 1.922 1.839.823.45 1.748.676 2.685.658 1.164.028 2.316-.233 3.355-.758.879-.422 1.584-1.137 1.994-2.022l3.171 1.129c-.741 1.526-1.916 2.8-3.378 3.662-1.55.891-3.314 1.342-5.102 1.304zm4.934-11.66c.012-.883-.228-1.752-.69-2.505-.461-.738-1.106-1.344-1.871-1.759-.814-.431-1.723-.649-2.644-.634-.841-.008-1.668.211-2.394.634-.743.432-1.379 1.026-1.859 1.739-.514.753-.837 1.62-.941 2.525zm10.563 5.278c.129.677.448 1.304.921 1.807.436.437.974.76 1.564.941.618.198 1.262.298 1.911.295.953.057 1.899-.189 2.704-.702.293-.184.534-.439.702-.74.168-.302.257-.642.26-.987.011-.264-.035-.528-.137-.772-.103-.244-.257-.463-.454-.64-.472-.378-1.014-.66-1.595-.83-.654-.207-1.357-.399-2.11-.57-.667-.184-1.389-.399-2.174-.623-.77-.221-1.509-.54-2.198-.949-.672-.38-1.249-.908-1.688-1.544-.46-.711-.688-1.547-.654-2.393-.023-1.087.31-2.152.95-3.032.675-.893 1.583-1.582 2.624-1.994 1.209-.504 2.508-.758 3.818-.746 1.512-.032 3.007.335 4.332 1.065 1.251.715 2.214 1.843 2.724 3.191l-3.283 1.085c-.172-.477-.48-.892-.885-1.197-.42-.308-.9-.524-1.408-.634-.514-.119-1.04-.178-1.568-.175-.846-.03-1.685.171-2.425.582-.303.164-.554.409-.725.708-.17.299-.254.639-.241.983-.012.365.096.724.307 1.022.233.289.535.514.878.654.432.184.877.333 1.332.447l1.652.426c.798.232 1.555.483 2.353.754.767.261 1.504.602 2.198 1.017.711.416 1.297 1.015 1.699 1.734.401.719.602 1.532.583 2.355.015 1.077-.314 2.13-.938 3.008-.688.917-1.611 1.631-2.672 2.066-1.29.53-2.675.787-4.069.754-1.708.053-3.394-.39-4.854-1.276-1.386-.907-2.358-2.323-2.705-3.942zm16.355-13.2h3.311l.239 2.242c.621-.802 1.429-1.441 2.353-1.859.998-.449 2.082-.675 3.176-.662 1.354-.032 2.692.293 3.881.941 1.112.652 2.001 1.626 2.549 2.793.645 1.46.952 3.047.897 4.643v11.169h-3.622v-10.703c0-1.807-.399-3.191-1.136-4.112-.738-.922-1.859-1.4-3.303-1.4s-2.645.482-3.467 1.444c-.821.961-1.236 2.393-1.236 4.264v10.531h-3.642zm22.222 0h3.662v19.295h-3.662zm1.847-3.39c-.321.01-.642-.047-.94-.168s-.567-.303-.791-.535c-.228-.217-.409-.48-.53-.771-.12-.291-.179-.605-.172-.92-.007-.326.051-.65.172-.953s.301-.578.53-.81c.225-.233.496-.417.797-.539.3-.123.622-.181.946-.171.322-.004.641.057.938.179s.567.302.793.531c.23.232.411.507.533.81s.182.627.177.953c.005.316-.055.629-.178.92-.122.291-.303.554-.532.771-.226.228-.497.407-.794.527-.297.121-.616.181-.937.176z"/><path d="m331.722 181.49c.031-.644-.07-1.287-.297-1.891-.226-.603-.573-1.154-1.019-1.619-.87-.874-2.262-1.309-4.165-1.309h-6.179v9.602h6.211c1.065.042 2.125-.164 3.095-.603.755-.353 1.377-.939 1.776-1.671.395-.777.593-1.638.578-2.509zm-5.481-8.062c2.128 0 3.884.366 5.27 1.097 1.284.656 2.356 1.665 3.087 2.908.685 1.241 1.036 2.639 1.017 4.057.001.984-.17 1.961-.502 2.888-.349.973-.902 1.861-1.62 2.605-.815.832-1.81 1.468-2.908 1.859-1.385.482-2.846.712-4.312.678h-6.211v10.917h-3.849v-27.009zm2.473 14.779 7.444 12.23h-4.36l-7.18-12.23zm12.346-7.064h3.666v19.294h-3.666zm1.847-3.391c-.321.009-.64-.049-.937-.17s-.566-.302-.79-.532c-.227-.219-.406-.483-.526-.775-.12-.291-.179-.605-.172-.92-.007-.325.051-.648.171-.95.12-.303.299-.578.527-.809.223-.232.492-.415.789-.538s.616-.183.938-.176c.322-.004.641.058.938.18.298.123.568.304.793.534.231.23.412.505.534.807s.182.626.176.952c.006.316-.055.63-.177.922s-.304.555-.533.773c-.227.227-.497.406-.794.527s-.616.18-.937.175zm10 3.391 5.557 15.401 5.585-15.401h3.861l-7.527 19.294h-3.937l-7.48-19.294zm26.726 19.566c-1.719.029-3.417-.393-4.922-1.225-1.441-.796-2.624-1.988-3.411-3.434-.82-1.632-1.244-3.435-1.236-5.261.008-1.827.446-3.625 1.28-5.25.812-1.452 2.012-2.649 3.467-3.455 1.514-.816 3.214-1.228 4.934-1.196 1.729-.03 3.437.382 4.962 1.196 1.458.799 2.665 1.987 3.487 3.431.841 1.624 1.28 3.426 1.28 5.255s-.439 3.632-1.28 5.256c-.826 1.462-2.049 2.661-3.526 3.458-1.545.832-3.277 1.254-5.031 1.225zm-.043-3.323c1.009.002 2.003-.244 2.896-.714.929-.502 1.699-1.256 2.221-2.174.622-1.146.921-2.439.866-3.742.051-1.284-.236-2.559-.834-3.698-.504-.911-1.258-1.658-2.174-2.154-.894-.47-1.889-.715-2.9-.714-.976-.003-1.937.242-2.792.714-.899.505-1.633 1.26-2.11 2.174-.577 1.165-.851 2.456-.798 3.754-.05 1.272.225 2.537.798 3.674.459.906 1.173 1.659 2.054 2.166.851.474 1.81.72 2.785.714zm13.929 2.086c0 1.596-.399 2.876-1.197 3.841-.43.494-.956.894-1.547 1.176s-1.233.44-1.887.464l.578 3.191c1.325-.047 2.618-.423 3.762-1.093 1.196-.709 2.181-1.724 2.856-2.94.767-1.41 1.148-2.998 1.105-4.603v-18.349h-3.662zm1.815-21.72c-.319.006-.636-.053-.932-.174-.296-.12-.563-.3-.787-.528-.229-.218-.411-.481-.533-.773s-.183-.606-.177-.922c-.006-.326.054-.65.176-.952s.303-.577.534-.807c.459-.458 1.081-.715 1.729-.715s1.27.257 1.729.715c.225.233.401.509.519.811s.175.624.167.948c.007.314-.05.627-.168.918-.118.292-.294.556-.518.777-.225.228-.494.408-.791.529-.297.12-.616.179-.936.173zm7.838-5.098h3.63v27.783h-3.63zm20.91 27.783-.303-2.824c-.551.945-1.344 1.726-2.297 2.262-1.13.573-2.388.847-3.654.798-1.217.033-2.427-.198-3.546-.678-.918-.398-1.7-1.055-2.25-1.891-.546-.844-.824-1.832-.798-2.836-.015-.765.139-1.524.453-2.221.314-.698.779-1.317 1.362-1.812 1.197-1.061 2.964-1.731 5.249-1.995l5.485-.63v-1.496c0-.405-.091-.805-.266-1.171-.174-.365-.428-.688-.743-.943-.666-.578-1.639-.865-2.9-.865-1.064-.035-2.113.256-3.008.833-.839.58-1.428 1.457-1.647 2.453l-3.251-1.16c.442-1.635 1.464-3.054 2.876-3.989 1.549-.98 3.354-1.474 5.186-1.42 2.417 0 4.255.606 5.512 1.819.632.621 1.126 1.369 1.452 2.193s.475 1.708.439 2.593v12.964zm-.303-8.839-5.293.654c-.917.075-1.796.401-2.541.941-.276.228-.497.516-.644.843-.147.326-.218.682-.206 1.04-.006.341.065.679.209.988s.356.581.621.795c.662.517 1.491.774 2.33.722 1.075.04 2.142-.202 3.095-.702.798-.439 1.438-1.119 1.827-1.942.419-.913.625-1.909.602-2.912zm8.868-10.455h3.315l.239 2.242c.62-.804 1.428-1.442 2.353-1.859.993-.448 2.071-.673 3.16-.658 1.354-.036 2.693.289 3.881.941 1.114.651 2.004 1.625 2.553 2.792.644 1.461.951 3.048.897 4.643v11.193h-3.618v-10.73c0-1.808-.38-3.179-1.14-4.113-.75-.929-1.855-1.404-3.303-1.404s-2.645.487-3.467 1.448c-.821.962-1.232 2.394-1.232 4.265v10.534h-3.634zm22.88 0v-5.405h3.666v5.405h4.823v3.235h-4.819v9.494c0 1.196.24 2.026.718 2.517.482.492 1.131.786 1.819.821.762.063 1.528.044 2.286-.055v3.127c-1.019.23-2.066.304-3.107.219-.966-.08-1.9-.379-2.733-.873-.839-.514-1.513-1.259-1.939-2.146-.51-1.133-.753-2.369-.71-3.61v-9.494h-2.792v-3.235zm13.116 0h3.666v19.294h-3.666zm1.847-3.391c-.321.009-.64-.049-.937-.169-.298-.121-.567-.303-.79-.533-.228-.218-.409-.482-.529-.774-.121-.292-.18-.605-.173-.921-.007-.326.051-.649.172-.951.12-.302.301-.577.53-.808.223-.232.491-.415.789-.538.297-.123.616-.183.938-.176.321-.003.64.058.936.181.297.123.566.304.791.533.231.23.413.505.536.807s.183.626.178.952c.004.315-.057.627-.179.918-.122.29-.303.552-.531.769-.225.228-.494.409-.791.531s-.615.183-.936.179zm7.906 3.391h3.315l.239 2.581c.529-.658 1.162-1.225 1.875-1.676.712-.448 1.496-.769 2.318-.949.855-.177 1.739-.162 2.589.044v3.434c-.804-.205-1.642-.232-2.458-.079-.784.146-1.52.484-2.142.985-.658.535-1.18 1.219-1.523 1.994-.407.936-.604 1.949-.579 2.968v9.996h-3.634zm14.592 0h3.666v19.294h-3.666zm1.851-3.391c-.321.01-.641-.048-.938-.168-.297-.121-.566-.303-.79-.534-.228-.218-.409-.482-.531-.773-.121-.292-.181-.606-.175-.922-.006-.326.053-.649.174-.952.122-.302.303-.577.532-.807.223-.233.492-.416.789-.539s.617-.183.939-.175c.321-.003.639.058.936.181s.566.304.791.533c.23.23.412.505.534.807s.182.626.176.952c.005.316-.055.63-.177.922s-.304.555-.533.773c-.226.226-.495.405-.791.525-.296.121-.613.181-.932.177zm10.072 16.59c.126.678.444 1.306.917 1.807.437.436.974.759 1.564.942.619.198 1.265.297 1.915.295.953.055 1.899-.19 2.704-.702.292-.185.533-.439.701-.741s.258-.641.261-.986c.01-.265-.037-.528-.139-.772s-.256-.463-.452-.64c-.472-.379-1.014-.661-1.595-.83-.655-.212-1.357-.399-2.111-.571l-2.178-.622c-.769-.223-1.507-.542-2.197-.949-.67-.382-1.246-.91-1.684-1.544-.46-.711-.69-1.547-.658-2.393-.021-1.087.314-2.15.953-3.028.673-.896 1.582-1.586 2.625-1.994 1.204-.491 2.494-.733 3.794-.715 1.516-.034 3.014.332 4.344 1.062 1.249.716 2.211 1.844 2.72 3.191l-3.279 1.085c-.175-.476-.482-.891-.885-1.197-.423-.305-.903-.52-1.413-.63-.512-.12-1.037-.18-1.563-.18-.846-.029-1.685.172-2.425.583-.304.164-.555.41-.725.709-.171.3-.254.641-.241.986-.014.364.094.722.307 1.017.228.292.529.518.874.654.432.188.879.339 1.336.451l1.652.427c.774.227 1.551.479 2.349.754.768.259 1.507.6 2.202 1.017.71.417 1.295 1.017 1.695 1.736.4.72.6 1.534.579 2.357.013 1.077-.317 2.13-.942 3.007-.685.917-1.608 1.63-2.668 2.063-1.289.533-2.675.791-4.069.758-1.707.052-3.393-.392-4.855-1.277-1.388-.903-2.36-2.321-2.704-3.941zm16.355-21.688h3.63v10.607c.646-.768 1.467-1.371 2.393-1.759 1.028-.436 2.135-.652 3.251-.634 1.325-.027 2.634.298 3.793.941 1.118.663 2.013 1.645 2.569 2.82.655 1.461.968 3.051.918 4.651v11.169h-3.81v-10.698c0-1.808-.371-3.187-1.113-4.137-.742-.949-1.839-1.424-3.283-1.424-.651-.035-1.302.078-1.903.333-.601.254-1.135.643-1.563 1.135-.798.978-1.237 2.394-1.237 4.276v10.503h-3.629z"/><path d="m332.332 220.246c.03-.582-.071-1.163-.294-1.701-.224-.539-.565-1.02-.998-1.41-.862-.752-2.101-1.13-3.718-1.133h-7.26v8.441h7.292c1.568 0 2.792-.371 3.666-1.113.438-.381.783-.857 1.01-1.391.228-.534.331-1.113.302-1.693zm-16.119 19.522v-27.005h11.448c1.642-.055 3.273.28 4.759.977 1.15.534 2.119 1.392 2.789 2.468.671 1.076 1.013 2.324.985 3.592.035 1.054-.194 2.1-.667 3.043-.423.79-1.032 1.465-1.775 1.967-.758.5-1.604.853-2.493 1.041v.255c1.027.127 2.016.462 2.908.986.841.5 1.524 1.227 1.971 2.098.504 1.046.749 2.198.714 3.358.01 1.295-.352 2.566-1.041 3.662-.723 1.14-1.761 2.045-2.988 2.605-1.485.673-3.105.999-4.735.953zm3.849-3.239h7.687c1.643 0 2.932-.398 3.873-1.136.942-.738 1.412-1.847 1.412-3.271s-.494-2.537-1.488-3.291c-.993-.754-2.297-1.137-3.917-1.137h-7.579zm33.348 3.239-.307-2.824c-.55.946-1.344 1.727-2.298 2.262-1.13.573-2.388.848-3.654.798-1.216.032-2.425-.2-3.542-.682-.919-.398-1.702-1.055-2.254-1.891-.543-.844-.821-1.832-.797-2.836-.016-.765.139-1.524.453-2.221.314-.698.779-1.316 1.362-1.812 1.196-1.061 2.963-1.727 5.249-1.995l5.481-.622v-1.496c0-.404-.09-.803-.264-1.169-.174-.365-.427-.686-.741-.941-.667-.582-1.644-.865-2.9-.865-1.064-.035-2.114.256-3.008.833-.844.575-1.435 1.452-1.651 2.449l-3.247-1.16c.438-1.637 1.461-3.056 2.876-3.989 1.548-.981 3.354-1.475 5.185-1.42 2.418 0 4.256.606 5.517 1.819.629.623 1.122 1.37 1.447 2.194.325.825.475 1.707.44 2.592v12.961zm-.307-8.839-5.294.658c-.915.073-1.793.397-2.537.938-.276.227-.497.515-.645.842-.148.326-.219.682-.208 1.04-.007.341.065.679.208.988.144.309.357.581.622.795.662.517 1.491.773 2.329.722 1.075.04 2.143-.202 3.096-.702.8-.438 1.44-1.12 1.826-1.946.422-.911.628-1.906.603-2.908zm8.867-10.455h3.307l.243 2.242c.619-.803 1.426-1.442 2.35-1.859.994-.448 2.073-.673 3.163-.658 1.354-.033 2.693.292 3.881.941 1.114.651 2.003 1.625 2.549 2.792.644 1.458.949 3.043.894 4.635v11.194h-3.614v-10.731c0-1.807-.399-3.191-1.145-4.112-.746-.922-1.855-1.405-3.299-1.405s-2.648.487-3.466 1.448c-.818.962-1.241 2.394-1.241 4.265v10.535h-3.63zm21.656-8.489h3.662v16.551h1.596l7.204-8.062h4.946l-8.947 9.645 8.991 9.649h-5.006l-7.204-8.105h-1.596v8.105h-3.646zm21.337 8.489h3.666v19.294h-3.666zm1.851-3.391c-.321.01-.64-.047-.938-.168-.297-.121-.566-.303-.789-.534-.228-.218-.409-.482-.53-.774-.12-.291-.179-.605-.172-.921-.007-.325.051-.649.172-.951.12-.302.301-.577.53-.808.222-.233.491-.416.789-.538.297-.122.617-.181.938-.172.323-.003.644.06.942.184.299.124.57.306.797.536.226.23.405.504.524.804.12.301.177.622.171.945.007.316-.052.63-.174.922-.121.292-.303.556-.533.773-.227.228-.498.407-.796.528s-.617.18-.939.174z"/></g></g></svg>